<svg width="35" height="35" viewBox="0 0 35 35" fill="none" xmlns="http://www.w3.org/2000/svg">
<path d="M21.3833 9.53028L21.3833 9.5303C21.8729 9.39061 22.3797 9.32022 22.8889 9.32118M21.3833 9.53028L31.2904 27.2572C30.3413 25.9109 29.083 24.8119 27.6211 24.0528C26.159 23.2935 24.5361 22.8963 22.8887 22.8945H22.8883C22.5652 22.8945 22.2554 22.7662 22.0269 22.5378C21.7985 22.3093 21.6702 21.9995 21.6702 21.6764C21.6702 21.3533 21.7985 21.0435 22.0269 20.8151C22.2554 20.5866 22.5652 20.4583 22.8883 20.4583C24.3652 20.4583 25.7815 19.8716 26.8258 18.8273C27.8701 17.783 28.4568 16.3666 28.4568 14.8897C28.4568 13.4129 27.8701 11.9965 26.8258 10.9522C25.7817 9.90802 24.3656 9.32135 22.8889 9.32118M21.3833 9.53028L21.3793 9.53147M21.3833 9.53028L21.3793 9.53147M22.8889 9.32118L22.8883 9.66921V9.32118C22.8885 9.32118 22.8887 9.32118 22.8889 9.32118ZM21.3793 9.53147C21.2244 9.57765 21.062 9.59257 20.9013 9.57536C20.7407 9.55815 20.5851 9.50916 20.4435 9.43123C20.302 9.35331 20.1774 9.248 20.077 9.12146C19.9765 8.99491 19.9022 8.84964 19.8585 8.69412C19.8147 8.53859 19.8023 8.37592 19.822 8.21556C19.8418 8.0552 19.8932 7.90037 19.9733 7.76007C20.0534 7.61978 20.1607 7.49682 20.2887 7.39836C20.4168 7.29991 20.5633 7.22792 20.7194 7.18659L20.7195 7.18664M21.3793 9.53147L20.7195 7.18664M20.7195 7.18664L20.7257 7.18487M20.7195 7.18664L20.7257 7.18487M20.7257 7.18487C21.4289 6.98467 22.1566 6.88372 22.8877 6.88494L22.8893 6.88493M20.7257 7.18487L22.8893 6.88493M22.8893 6.88493C24.5322 6.88016 26.1366 7.38182 27.4841 8.32162C28.8316 9.26141 29.8568 10.5937 30.42 12.137C30.9832 13.6803 31.0571 15.3597 30.6315 16.9465C30.206 18.5333 29.3018 19.9505 28.042 21.0049L27.6172 21.3605M22.8893 6.88493L27.6172 21.3605M27.6172 21.3605L28.1219 21.5889M27.6172 21.3605L28.1219 21.5889M28.1219 21.5889C30.1915 22.5255 31.9725 23.9994 33.2796 25.8573L33.2811 25.8595M28.1219 21.5889L33.2811 25.8595M33.2811 25.8595C33.374 25.9894 33.4401 26.1365 33.4757 26.2922C33.5112 26.4479 33.5154 26.6091 33.4881 26.7665C33.4608 26.9238 33.4024 27.0742 33.3165 27.2088C33.2306 27.3434 33.1187 27.4596 32.9874 27.5506L32.9874 27.5506M33.2811 25.8595L32.9874 27.5506M32.9874 27.5506L32.9834 27.5535M32.9874 27.5506L32.9834 27.5535M32.9834 27.5535C32.7802 27.6987 32.5366 27.7764 32.2868 27.7757L32.9834 27.5535ZM17.4046 21.0055L16.9818 21.3611L17.4851 21.5889C19.5547 22.5255 21.3357 23.9994 22.6428 25.8573L22.6478 25.8644L22.6531 25.8712C22.7546 26.0013 22.8287 26.1507 22.8707 26.3102C22.9128 26.4698 22.922 26.6362 22.8978 26.7995C22.8736 26.9627 22.8164 27.1193 22.7299 27.2598C22.6433 27.4003 22.5291 27.5217 22.3941 27.6167C22.2592 27.7117 22.1064 27.7783 21.9449 27.8125C21.7835 27.8466 21.6168 27.8476 21.4549 27.8154C21.2931 27.7832 21.1395 27.7184 21.0034 27.625C20.8674 27.5316 20.7517 27.4115 20.6635 27.272L20.659 27.265L20.6542 27.2582C19.7071 25.9091 18.449 24.808 16.9865 24.0478C15.5239 23.2876 13.8998 22.8908 12.2515 22.8908C10.6031 22.8908 8.97905 23.2876 7.51648 24.0478C6.05391 24.808 4.79587 25.9091 3.84871 27.2582L3.84794 27.2593C3.7366 27.4192 3.58814 27.5497 3.4153 27.6396C3.24245 27.7296 3.05037 27.7763 2.85553 27.7757L2.85339 27.7757C2.6035 27.7765 2.35967 27.6988 2.15637 27.5535L2.1547 27.5523C1.89118 27.3663 1.7122 27.0833 1.65702 26.7656C1.60184 26.4478 1.67492 26.1211 1.86025 25.8572C3.16734 23.9993 4.94825 22.5255 7.01782 21.5889L7.52113 21.3611L7.09838 21.0055C5.84195 19.9485 4.94093 18.5308 4.51747 16.9444C4.09402 15.3581 4.16861 13.6799 4.73114 12.1374C5.29366 10.5949 6.31691 9.26267 7.66216 8.32134C9.00741 7.38002 10.6096 6.87513 12.2515 6.87513C13.8933 6.87513 15.4955 7.38002 16.8408 8.32134C18.186 9.26267 19.2093 10.5949 19.7718 12.1374C20.3343 13.6799 20.4089 15.3581 19.9855 16.9444C19.562 18.5308 18.661 19.9485 17.4046 21.0055ZM7.62138 11.796C7.0095 12.7118 6.68291 13.7884 6.68291 14.8897C6.68291 16.3666 7.2696 17.783 8.3139 18.8273C9.35821 19.8716 10.7746 20.4583 12.2515 20.4583C13.3528 20.4583 14.4294 20.1317 15.3452 19.5198C16.2609 18.9079 16.9747 18.0382 17.3961 17.0207C17.8176 16.0032 17.9279 14.8836 17.713 13.8034C17.4982 12.7232 16.9678 11.7309 16.189 10.9522C15.4103 10.1734 14.418 9.64304 13.3378 9.42818C12.2576 9.21331 11.138 9.32359 10.1205 9.74506C9.10295 10.1665 8.23326 10.8803 7.62138 11.796Z" fill="#4CAF4F" stroke="#4CAF4F" stroke-width="0.696069"/>
</svg>
